<?xml version="1.0" encoding="iso-8859-1"?>
<!-- Uploaded to: SVG Repo, www.svgrepo.com, Generator: SVG Repo Mixer Tools -->
<svg fill="#000000" version="1.1" id="Layer_1" xmlns="http://www.w3.org/2000/svg" xmlns:xlink="http://www.w3.org/1999/xlink" 
	 viewBox="0 0 512 512" xml:space="preserve">
<g>
	<g>
		<path d="M394.672,77.8c-24.256,0-43.968,19.84-43.968,44.256c0,24.416,19.712,44.256,43.968,44.256
			c24.256,0,43.968-19.84,43.968-44.256C438.64,97.64,418.928,77.8,394.672,77.8z M394.672,150.328
			c-15.424,0-27.968-12.672-27.968-28.256c0-15.584,12.544-28.256,27.968-28.256s27.968,12.672,27.968,28.256
			C422.64,137.656,410.096,150.328,394.672,150.328z"/>
	</g>
</g>
<g>
	<g>
		<path d="M434.4,183.336l-39.76,30.208l-39.76-30.208c-48.896,14.784-48.288,64.72-48.288,64.72h88.064h88.064
			C482.72,248.056,483.328,198.12,434.4,183.336z"/>
	</g>
</g>
<g>
	<g>
		<rect x="277.328" y="289.192" width="234.672" height="16"/>
	</g>
</g>
<g>
	<g>
		<rect x="277.328" y="353.704" width="234.672" height="16"/>
	</g>
</g>
<g>
	<g>
		<rect x="277.328" y="418.2" width="234.672" height="16"/>
	</g>
</g>
<g>
	<g>
		<rect y="95.672" width="234.672" height="16"/>
	</g>
</g>
<g>
	<g>
		<rect y="160.184" width="234.672" height="16"/>
	</g>
</g>
<g>
	<g>
		<rect y="224.696" width="234.672" height="16"/>
	</g>
</g>
<g>
	<g>
		<rect y="289.192" width="234.672" height="16"/>
	</g>
</g>
<g>
	<g>
		<rect y="353.704" width="234.672" height="16"/>
	</g>
</g>
<g>
	<g>
		<rect y="418.2" width="234.672" height="16"/>
	</g>
</g>
</svg>