<?xml version="1.0" encoding="iso-8859-1"?>
<!-- Uploaded to: SVG Repo, www.svgrepo.com, Generator: SVG Repo Mixer Tools -->
<svg height="800px" width="800px" version="1.1" id="Layer_1" xmlns="http://www.w3.org/2000/svg" xmlns:xlink="http://www.w3.org/1999/xlink" 
	 viewBox="0 0 511.448 511.448" xml:space="preserve">
<g>
	<path style="fill:#FFFFFF;" d="M203.253,114.33v132.557c0,5.181-4.209,9.389-9.389,9.389h-8.937v-1.845
		c0-8.351-2.916-16.172-8.042-22.303c9.842-6.087,16.426-17,16.426-29.428c0-4.573-3.712-8.285-8.285-8.285
		c-5.181,0-9.389-4.209-9.389-9.389v-13.256c0-26.5-21.551-48.052-48.052-48.052s-48.052,21.551-48.052,48.052v13.256
		c0,5.181-4.209,9.389-9.389,9.389c-4.573,0-8.285,3.745-8.285,8.318c0,12.405,6.573,23.308,16.426,29.394
		c-5.126,6.131-8.042,13.952-8.042,22.303v1.845h-8.937c-5.181,0-9.389-4.209-9.389-9.389V114.33c0-5.181,4.209-9.389,9.389-9.389
		h132.557C199.045,104.941,203.253,109.149,203.253,114.33z"/>
	<path style="fill:#FFFFFF;" d="M238.602,69.592v372.263H43.633c-14.924,0-27.064-12.14-27.064-27.064V96.656
		c0-14.924,12.14-27.064,27.064-27.064H238.602z M219.823,246.887V114.33c0-14.316-11.643-25.959-25.959-25.959H61.307
		c-14.316,0-25.959,11.643-25.959,25.959v132.557c0,14.316,11.643,25.959,25.959,25.959h132.557
		C208.18,272.846,219.823,261.203,219.823,246.887z M219.823,299.909c0-4.573-3.712-8.285-8.285-8.285H43.633
		c-4.573,0-8.285,3.712-8.285,8.285c0,4.573,3.712,8.285,8.285,8.285h167.905C216.111,308.194,219.823,304.483,219.823,299.909z
		 M184.475,335.258c0-4.573-3.712-8.285-8.285-8.285H43.633c-4.573,0-8.285,3.712-8.285,8.285s3.712,8.285,8.285,8.285H176.19
		C180.763,343.543,184.475,339.831,184.475,335.258z M184.475,370.606c0-4.573-3.712-8.285-8.285-8.285H96.656
		c-4.573,0-8.285,3.712-8.285,8.285c0,4.573,3.712,8.285,8.285,8.285h79.534C180.763,378.891,184.475,375.179,184.475,370.606z
		 M184.475,405.955c0-4.573-3.712-8.285-8.285-8.285H96.656c-4.573,0-8.285,3.712-8.285,8.285s3.712,8.285,8.285,8.285h79.534
		C180.763,414.239,184.475,410.528,184.475,405.955z M69.592,370.606c0-4.573-3.712-8.285-8.285-8.285H43.633
		c-4.573,0-8.285,3.712-8.285,8.285c0,4.573,3.712,8.285,8.285,8.285h17.674C65.881,378.891,69.592,375.179,69.592,370.606z
		 M69.592,405.955c0-4.573-3.712-8.285-8.285-8.285H43.633c-4.573,0-8.285,3.712-8.285,8.285s3.712,8.285,8.285,8.285h17.674
		C65.881,414.239,69.592,410.528,69.592,405.955z"/>
	<path style="fill:#FFFFFF;" d="M494.878,96.656v150.783H255.172V69.592h212.643C482.738,69.592,494.878,81.732,494.878,96.656z
		 M476.099,105.493c0-4.573-3.712-8.285-8.285-8.285H282.235c-4.573,0-8.285,3.712-8.285,8.285c0,4.573,3.712,8.285,8.285,8.285
		h185.579C472.388,113.778,476.099,110.066,476.099,105.493z M440.751,140.841c0-4.573-3.712-8.285-8.285-8.285H282.235
		c-4.573,0-8.285,3.712-8.285,8.285c0,4.573,3.712,8.285,8.285,8.285h150.231C437.039,149.126,440.751,145.415,440.751,140.841z
		 M440.751,176.19c0-4.573-3.712-8.285-8.285-8.285H282.235c-4.573,0-8.285,3.712-8.285,8.285c0,4.573,3.712,8.285,8.285,8.285
		h150.231C437.039,184.475,440.751,180.763,440.751,176.19z M440.751,211.538c0-4.573-3.712-8.285-8.285-8.285H282.235
		c-4.573,0-8.285,3.712-8.285,8.285c0,4.573,3.712,8.285,8.285,8.285h150.231C437.039,219.823,440.751,216.111,440.751,211.538z"/>
</g>
<g>
	<path style="fill:#C2E95D;" d="M494.878,264.009v150.783c0,14.924-12.14,27.064-27.064,27.064H255.172V264.009H494.878z
		 M476.099,299.909c0-4.573-3.712-8.285-8.285-8.285H335.258c-4.573,0-8.285,3.712-8.285,8.285c0,4.573,3.712,8.285,8.285,8.285
		h132.557C472.388,308.194,476.099,304.483,476.099,299.909z M476.099,370.606c0-4.573-3.712-8.285-8.285-8.285H335.258
		c-4.573,0-8.285,3.712-8.285,8.285c0,4.573,3.712,8.285,8.285,8.285h132.557C472.388,378.891,476.099,375.179,476.099,370.606z
		 M440.751,335.258c0-4.573-3.712-8.285-8.285-8.285h-97.208c-4.573,0-8.285,3.712-8.285,8.285s3.712,8.285,8.285,8.285h97.208
		C437.039,343.543,440.751,339.831,440.751,335.258z M440.751,405.955c0-4.573-3.712-8.285-8.285-8.285h-97.208
		c-4.573,0-8.285,3.712-8.285,8.285s3.712,8.285,8.285,8.285h97.208C437.039,414.239,440.751,410.528,440.751,405.955z
		 M308.194,299.909c0-4.573-3.712-8.285-8.285-8.285h-17.674c-4.573,0-8.285,3.712-8.285,8.285c0,4.573,3.712,8.285,8.285,8.285
		h17.674C304.483,308.194,308.194,304.483,308.194,299.909z M308.194,335.258c0-4.573-3.712-8.285-8.285-8.285h-17.674
		c-4.573,0-8.285,3.712-8.285,8.285s3.712,8.285,8.285,8.285h17.674C304.483,343.543,308.194,339.831,308.194,335.258z
		 M308.194,370.606c0-4.573-3.712-8.285-8.285-8.285h-17.674c-4.573,0-8.285,3.712-8.285,8.285c0,4.573,3.712,8.285,8.285,8.285
		h17.674C304.483,378.891,308.194,375.179,308.194,370.606z M308.194,405.955c0-4.573-3.712-8.285-8.285-8.285h-17.674
		c-4.573,0-8.285,3.712-8.285,8.285s3.712,8.285,8.285,8.285h17.674C304.483,414.239,308.194,410.528,308.194,405.955z"/>
	<path style="fill:#C2E95D;" d="M175.538,209.196c-2.596,6.716-9.124,11.499-16.757,11.499h-0.265c-3.844,0-7.18,2.64-8.064,6.385
		c-0.884,3.734,0.917,7.6,4.363,9.312l3.469,1.745c6.219,3.104,10.074,9.345,10.074,16.293v1.845H86.814v-1.845
		c0-6.948,3.855-13.189,10.074-16.293l3.469-1.745c3.446-1.712,5.247-5.578,4.363-9.312c-0.884-3.745-4.22-6.385-8.064-6.385h-0.265
		c-7.622,0-14.15-4.772-16.757-11.51c9.632-3.789,16.47-13.189,16.47-24.158v-13.256c0-17.354,14.128-31.482,31.482-31.482
		s31.482,14.128,31.482,31.482v13.256C159.068,195.996,165.906,205.396,175.538,209.196z"/>
</g>
<g>
	<path style="fill:#535757;" d="M511.448,96.656v318.136c0,24.059-19.574,43.633-43.633,43.633H43.633
		C19.574,458.425,0,438.851,0,414.792V96.656c0-24.059,19.574-43.633,43.633-43.633h424.181
		C491.873,53.023,511.448,72.597,511.448,96.656z M494.878,414.792V264.009H255.172v177.847h212.643
		C482.738,441.855,494.878,429.715,494.878,414.792z M494.878,247.439V96.656c0-14.924-12.14-27.064-27.064-27.064H255.172v177.847
		H494.878z M238.602,441.855V69.592H43.633c-14.924,0-27.064,12.14-27.064,27.064v318.136c0,14.924,12.14,27.064,27.064,27.064
		H238.602z"/>
	<path style="fill:#535757;" d="M467.814,97.208c4.573,0,8.285,3.712,8.285,8.285c0,4.573-3.712,8.285-8.285,8.285H282.235
		c-4.573,0-8.285-3.712-8.285-8.285c0-4.573,3.712-8.285,8.285-8.285H467.814z"/>
	<path style="fill:#535757;" d="M467.814,291.625c4.573,0,8.285,3.712,8.285,8.285c0,4.573-3.712,8.285-8.285,8.285H335.258
		c-4.573,0-8.285-3.712-8.285-8.285c0-4.573,3.712-8.285,8.285-8.285H467.814z"/>
	<path style="fill:#535757;" d="M467.814,362.321c4.573,0,8.285,3.712,8.285,8.285c0,4.573-3.712,8.285-8.285,8.285H335.258
		c-4.573,0-8.285-3.712-8.285-8.285c0-4.573,3.712-8.285,8.285-8.285H467.814z"/>
	<path style="fill:#535757;" d="M432.466,132.557c4.573,0,8.285,3.712,8.285,8.285c0,4.573-3.712,8.285-8.285,8.285H282.235
		c-4.573,0-8.285-3.712-8.285-8.285c0-4.573,3.712-8.285,8.285-8.285H432.466z"/>
	<path style="fill:#535757;" d="M432.466,167.905c4.573,0,8.285,3.712,8.285,8.285c0,4.573-3.712,8.285-8.285,8.285H282.235
		c-4.573,0-8.285-3.712-8.285-8.285c0-4.573,3.712-8.285,8.285-8.285H432.466z"/>
	<path style="fill:#535757;" d="M432.466,203.253c4.573,0,8.285,3.712,8.285,8.285c0,4.573-3.712,8.285-8.285,8.285H282.235
		c-4.573,0-8.285-3.712-8.285-8.285c0-4.573,3.712-8.285,8.285-8.285H432.466z"/>
	<path style="fill:#535757;" d="M432.466,326.973c4.573,0,8.285,3.712,8.285,8.285s-3.712,8.285-8.285,8.285h-97.208
		c-4.573,0-8.285-3.712-8.285-8.285s3.712-8.285,8.285-8.285H432.466z"/>
	<path style="fill:#535757;" d="M432.466,397.67c4.573,0,8.285,3.712,8.285,8.285s-3.712,8.285-8.285,8.285h-97.208
		c-4.573,0-8.285-3.712-8.285-8.285s3.712-8.285,8.285-8.285H432.466z"/>
	<path style="fill:#535757;" d="M299.909,291.625c4.573,0,8.285,3.712,8.285,8.285c0,4.573-3.712,8.285-8.285,8.285h-17.674
		c-4.573,0-8.285-3.712-8.285-8.285c0-4.573,3.712-8.285,8.285-8.285H299.909z"/>
	<path style="fill:#535757;" d="M299.909,326.973c4.573,0,8.285,3.712,8.285,8.285s-3.712,8.285-8.285,8.285h-17.674
		c-4.573,0-8.285-3.712-8.285-8.285s3.712-8.285,8.285-8.285H299.909z"/>
	<path style="fill:#535757;" d="M299.909,362.321c4.573,0,8.285,3.712,8.285,8.285c0,4.573-3.712,8.285-8.285,8.285h-17.674
		c-4.573,0-8.285-3.712-8.285-8.285c0-4.573,3.712-8.285,8.285-8.285H299.909z"/>
	<path style="fill:#535757;" d="M299.909,397.67c4.573,0,8.285,3.712,8.285,8.285s-3.712,8.285-8.285,8.285h-17.674
		c-4.573,0-8.285-3.712-8.285-8.285s3.712-8.285,8.285-8.285H299.909z"/>
	<path style="fill:#535757;" d="M219.823,114.33v132.557c0,14.316-11.643,25.959-25.959,25.959H61.307
		c-14.316,0-25.959-11.643-25.959-25.959V114.33c0-14.316,11.643-25.959,25.959-25.959h132.557
		C208.18,88.371,219.823,100.014,219.823,114.33z M203.253,246.887V114.33c0-5.181-4.209-9.389-9.389-9.389H61.307
		c-5.181,0-9.389,4.209-9.389,9.389v132.557c0,5.181,4.209,9.389,9.389,9.389h8.937v-1.845c0-8.351,2.916-16.172,8.042-22.303
		c-9.853-6.087-16.426-16.989-16.426-29.394c0-4.573,3.712-8.318,8.285-8.318c5.181,0,9.389-4.209,9.389-9.389v-13.256
		c0-26.5,21.551-48.052,48.052-48.052s48.052,21.551,48.052,48.052v13.256c0,5.181,4.209,9.389,9.389,9.389
		c4.573,0,8.285,3.712,8.285,8.285c0,12.427-6.584,23.341-16.426,29.428c5.126,6.131,8.042,13.952,8.042,22.303v1.845h8.937
		C199.045,256.276,203.253,252.067,203.253,246.887z M158.781,220.696c7.633,0,14.161-4.783,16.757-11.499
		c-9.632-3.8-16.47-13.2-16.47-24.169v-13.256c0-17.354-14.128-31.482-31.482-31.482s-31.482,14.128-31.482,31.482v13.256
		c0,10.969-6.838,20.37-16.47,24.158c2.607,6.738,9.135,11.51,16.757,11.51h0.265c3.844,0,7.18,2.64,8.064,6.385
		c0.884,3.734-0.917,7.6-4.363,9.312l-3.469,1.745c-6.219,3.104-10.074,9.345-10.074,16.293v1.845h81.544v-1.845
		c0-6.948-3.855-13.189-10.074-16.293l-3.469-1.745c-3.446-1.712-5.247-5.578-4.363-9.312c0.884-3.745,4.22-6.385,8.064-6.385
		L158.781,220.696L158.781,220.696z"/>
	<path style="fill:#535757;" d="M211.538,291.625c4.573,0,8.285,3.712,8.285,8.285c0,4.573-3.712,8.285-8.285,8.285H43.633
		c-4.573,0-8.285-3.712-8.285-8.285c0-4.573,3.712-8.285,8.285-8.285H211.538z"/>
	<path style="fill:#535757;" d="M176.19,326.973c4.573,0,8.285,3.712,8.285,8.285s-3.712,8.285-8.285,8.285H43.633
		c-4.573,0-8.285-3.712-8.285-8.285s3.712-8.285,8.285-8.285H176.19z"/>
	<path style="fill:#535757;" d="M176.19,362.321c4.573,0,8.285,3.712,8.285,8.285c0,4.573-3.712,8.285-8.285,8.285H96.656
		c-4.573,0-8.285-3.712-8.285-8.285c0-4.573,3.712-8.285,8.285-8.285H176.19z"/>
	<path style="fill:#535757;" d="M176.19,397.67c4.573,0,8.285,3.712,8.285,8.285s-3.712,8.285-8.285,8.285H96.656
		c-4.573,0-8.285-3.712-8.285-8.285s3.712-8.285,8.285-8.285H176.19z"/>
	<path style="fill:#535757;" d="M61.307,362.321c4.573,0,8.285,3.712,8.285,8.285c0,4.573-3.712,8.285-8.285,8.285H43.633
		c-4.573,0-8.285-3.712-8.285-8.285c0-4.573,3.712-8.285,8.285-8.285H61.307z"/>
	<path style="fill:#535757;" d="M61.307,397.67c4.573,0,8.285,3.712,8.285,8.285s-3.712,8.285-8.285,8.285H43.633
		c-4.573,0-8.285-3.712-8.285-8.285s3.712-8.285,8.285-8.285H61.307z"/>
</g>
</svg>