<?xml version="1.0" encoding="iso-8859-1"?>
<!-- Uploaded to: SVG Repo, www.svgrepo.com, Generator: SVG Repo Mixer Tools -->
<svg fill="#000000" height="800px" width="800px" version="1.1" id="Layer_1" xmlns="http://www.w3.org/2000/svg" xmlns:xlink="http://www.w3.org/1999/xlink" 
	 viewBox="0 0 512 512" xml:space="preserve">
<g>
	<g>
		<path d="M468.32,53.08H43.68C19.595,53.08,0,72.675,0,96.76V415.24c0,24.085,19.595,43.68,43.68,43.68H468.32
			c24.085,0,43.68-19.595,43.68-43.68V96.76C512,72.675,492.405,53.08,468.32,53.08z M238.86,442.333H43.68
			c-14.939,0-27.093-12.154-27.093-27.093V96.76c0-14.939,12.154-27.093,27.093-27.093H238.86V442.333z M495.413,415.24
			c0,14.939-12.154,27.093-27.093,27.093H255.447V264.294h239.965V415.24z M495.413,247.706H255.447V69.667H468.32
			c14.939,0,27.093,12.154,27.093,27.093V247.706z"/>
	</g>
</g>
<g>
	<g>
		<path d="M194.073,88.467h-132.7c-14.329,0-25.987,11.658-25.987,25.987v132.7c0,14.329,11.658,25.987,25.987,25.987h132.7
			c14.329,0,25.987-11.658,25.987-25.987v-132.7C220.06,100.124,208.403,88.467,194.073,88.467z M158.953,220.937h-0.265
			c-3.846,0-7.188,2.645-8.071,6.388c-0.884,3.743,0.922,7.603,4.362,9.323l3.48,1.741c6.221,3.111,10.086,9.364,10.086,16.32v1.843
			H86.903v-1.843c0-6.956,3.865-13.209,10.086-16.32l3.48-1.741c3.44-1.721,5.247-5.58,4.362-9.323
			c-0.884-3.743-4.225-6.388-8.071-6.388h-0.265c-7.632,0-14.169-4.781-16.774-11.521c9.644-3.801,16.487-13.211,16.487-24.19
			v-13.27c0-17.378,14.138-31.516,31.516-31.516c17.378,0,31.516,14.138,31.516,31.516v13.27c0,10.981,6.845,20.391,16.493,24.191
			C173.132,216.149,166.591,220.937,158.953,220.937z M203.473,247.153c0,5.183-4.217,9.4-9.4,9.4h-8.942v-1.843
			c0-8.362-2.925-16.192-8.057-22.327c9.861-6.099,16.446-17.019,16.446-29.463c0-4.58-3.713-8.294-8.294-8.294
			c-5.183,0-9.4-4.217-9.4-9.4v-13.27c0-26.524-21.579-48.104-48.104-48.104c-26.524,0-48.104,21.579-48.104,48.104v13.27
			c0,5.183-4.217,9.4-9.4,9.4c-4.58,0-8.294,3.75-8.294,8.33c0,12.42,6.584,23.332,16.446,29.427
			c-5.131,6.135-8.056,13.964-8.056,22.326v1.843h-8.943c-5.183,0-9.4-4.217-9.4-9.4v-132.7c0-5.183,4.217-9.4,9.4-9.4h132.7
			c5.183,0,9.4,4.216,9.4,9.4V247.153z"/>
	</g>
</g>
<g>
	<g>
		<path d="M211.767,291.94H43.68c-4.58,0-8.294,3.713-8.294,8.294c0,4.58,3.713,8.294,8.294,8.294h168.086
			c4.58,0,8.294-3.713,8.294-8.294C220.06,295.653,216.347,291.94,211.767,291.94z"/>
	</g>
</g>
<g>
	<g>
		<path d="M176.38,327.326H43.68c-4.58,0-8.294,3.713-8.294,8.294c0,4.58,3.713,8.294,8.294,8.294h132.7
			c4.58,0,8.294-3.713,8.294-8.294C184.674,331.039,180.96,327.326,176.38,327.326z"/>
	</g>
</g>
<g>
	<g>
		<path d="M61.374,362.713H43.68c-4.58,0-8.294,3.713-8.294,8.294S39.1,379.3,43.68,379.3h17.693c4.58,0,8.294-3.713,8.294-8.294
			S65.954,362.713,61.374,362.713z"/>
	</g>
</g>
<g>
	<g>
		<path d="M61.374,398.099H43.68c-4.58,0-8.294,3.713-8.294,8.294c0,4.58,3.713,8.294,8.294,8.294h17.693
			c4.58,0,8.294-3.713,8.294-8.294C69.667,401.813,65.954,398.099,61.374,398.099z"/>
	</g>
</g>
<g>
	<g>
		<path d="M176.38,362.713H96.76c-4.58,0-8.294,3.713-8.294,8.294s3.713,8.294,8.294,8.294h79.62c4.58,0,8.294-3.713,8.294-8.294
			S180.96,362.713,176.38,362.713z"/>
	</g>
</g>
<g>
	<g>
		<path d="M176.38,398.099H96.76c-4.58,0-8.294,3.713-8.294,8.294c0,4.58,3.713,8.294,8.294,8.294h79.62
			c4.58,0,8.294-3.713,8.294-8.294C184.674,401.813,180.96,398.099,176.38,398.099z"/>
	</g>
</g>
<g>
	<g>
		<path d="M468.32,97.313H282.54c-4.58,0-8.294,3.713-8.294,8.294c0,4.58,3.713,8.294,8.294,8.294h185.78
			c4.58,0,8.294-3.713,8.294-8.294C476.613,101.027,472.9,97.313,468.32,97.313z"/>
	</g>
</g>
<g>
	<g>
		<path d="M432.933,132.7H282.54c-4.58,0-8.294,3.713-8.294,8.294c0,4.58,3.713,8.294,8.294,8.294h150.393
			c4.58,0,8.294-3.713,8.294-8.294C441.227,136.413,437.513,132.7,432.933,132.7z"/>
	</g>
</g>
<g>
	<g>
		<path d="M432.933,168.086H282.54c-4.58,0-8.294,3.713-8.294,8.294c0,4.58,3.713,8.294,8.294,8.294h150.393
			c4.58,0,8.294-3.713,8.294-8.294C441.227,171.8,437.513,168.086,432.933,168.086z"/>
	</g>
</g>
<g>
	<g>
		<path d="M432.933,203.473H282.54c-4.58,0-8.294,3.713-8.294,8.294c0,4.58,3.713,8.294,8.294,8.294h150.393
			c4.58,0,8.294-3.713,8.294-8.294C441.227,207.186,437.513,203.473,432.933,203.473z"/>
	</g>
</g>
<g>
	<g>
		<path d="M300.233,291.94H282.54c-4.58,0-8.294,3.713-8.294,8.294c0,4.58,3.713,8.294,8.294,8.294h17.693
			c4.58,0,8.294-3.713,8.294-8.294C308.527,295.653,304.814,291.94,300.233,291.94z"/>
	</g>
</g>
<g>
	<g>
		<path d="M300.233,327.326H282.54c-4.58,0-8.294,3.713-8.294,8.294c0,4.58,3.713,8.294,8.294,8.294h17.693
			c4.58,0,8.294-3.713,8.294-8.294C308.527,331.039,304.814,327.326,300.233,327.326z"/>
	</g>
</g>
<g>
	<g>
		<path d="M300.233,362.713H282.54c-4.58,0-8.294,3.713-8.294,8.294s3.713,8.294,8.294,8.294h17.693c4.58,0,8.294-3.713,8.294-8.294
			S304.814,362.713,300.233,362.713z"/>
	</g>
</g>
<g>
	<g>
		<path d="M300.233,398.099H282.54c-4.58,0-8.294,3.713-8.294,8.294c0,4.58,3.713,8.294,8.294,8.294h17.693
			c4.58,0,8.294-3.713,8.294-8.294C308.527,401.813,304.814,398.099,300.233,398.099z"/>
	</g>
</g>
<g>
	<g>
		<path d="M468.32,291.94h-132.7c-4.58,0-8.294,3.713-8.294,8.294c0,4.58,3.713,8.294,8.294,8.294h132.7
			c4.58,0,8.294-3.713,8.294-8.294C476.613,295.653,472.9,291.94,468.32,291.94z"/>
	</g>
</g>
<g>
	<g>
		<path d="M432.933,327.326H335.62c-4.58,0-8.294,3.713-8.294,8.294c0,4.58,3.713,8.294,8.294,8.294h97.313
			c4.58,0,8.294-3.713,8.294-8.294C441.227,331.039,437.513,327.326,432.933,327.326z"/>
	</g>
</g>
<g>
	<g>
		<path d="M468.32,362.713h-132.7c-4.58,0-8.294,3.713-8.294,8.294s3.713,8.294,8.294,8.294h132.7c4.58,0,8.294-3.713,8.294-8.294
			S472.9,362.713,468.32,362.713z"/>
	</g>
</g>
<g>
	<g>
		<path d="M432.933,398.099H335.62c-4.58,0-8.294,3.713-8.294,8.294c0,4.58,3.713,8.294,8.294,8.294h97.313
			c4.58,0,8.294-3.713,8.294-8.294C441.227,401.813,437.513,398.099,432.933,398.099z"/>
	</g>
</g>
</svg>